<svg viewBox="0 0 1000 560" xmlns="http://www.w3.org/2000/svg"><rect x="0" y="0" width="1000" height="560" fill="#fbfbf8"></rect><rect x="54" y="54" width="892" height="452" fill="none" stroke="#d1d5db" stroke-width="2"></rect><rect x="64" y="122" width="872" height="378" fill="none" stroke="#e5e7eb" stroke-width="1" opacity="0.55"></rect><text x="78" y="84" font-family="Chalkboard SE, Marker Felt, Bradley Hand, Comic Sans MS, Trebuchet MS, sans-serif" font-size="40" fill="#1f2937" data-teach-order="1" data-teach-kind="write" data-teach-weight="10" data-teach-sentence="0">Human cardiac anatomy</text><text x="86" y="154" font-family="Chalkboard SE, Marker Felt, Bradley Hand, Comic Sans MS, Trebuchet MS, sans-serif" font-size="28" fill="#374151" data-teach-order="2" data-teach-kind="write" data-teach-weight="8" data-teach-sentence="1">Four chambers</text><g data-teach-order="3" data-teach-kind="diagram" data-teach-weight="10" data-teach-sentence="1"><path d="M 405 192
     C 350 252, 360 352, 415 422
     C 450 467, 510 482, 555 447
     C 590 420, 630 372, 655 322
     C 685 257, 665 192, 600 162
     C 550 140, 485 144, 445 170
     C 428 180, 416 186, 405 192 Z" fill="#f3c6c6" stroke="#1f2937" stroke-width="3" stroke-linejoin="round"></path><path d="M 558 162
              C 632 178, 672 242, 656 322
              C 638 408, 580 456, 530 468
              C 578 432, 602 386, 612 336
              C 622 286, 604 210, 558 162 Z" fill="#eaa7a7" opacity="0.95"></path><path d="M 428 220
     C 390 272, 398 342, 436 404
     C 458 440, 506 448, 542 424
     C 578 400, 618 360, 630 322
     C 646 268, 632 220, 588 200
     C 550 184, 478 186, 428 220 Z" fill="#f7e1e1" opacity="0.9" stroke="#b91c1c" stroke-width="1.2"></path><path d="M 526 220
     C 508 272, 510 322, 526 380
     C 538 422, 538 444, 528 462" fill="none" stroke="#9ca3af" stroke-width="8" stroke-linecap="round" opacity="0.9"></path><path d="M 526 220
     C 508 272, 510 322, 526 380
     C 538 422, 538 444, 528 462" fill="none" stroke="#1f2937" stroke-width="2.2" stroke-linecap="round" opacity="0.75"></path><path d="M 434 242
              C 404 278, 408 328, 442 366
              C 464 390, 502 392, 514 366
              C 502 322, 484 274, 434 242 Z" fill="#dbeafe" opacity="0.55" stroke="#2563eb" stroke-width="1.1"></path><path d="M 442 374
              C 412 404, 424 446, 464 462
              C 498 476, 516 452, 520 422
              C 510 390, 490 378, 442 374 Z" fill="#bfdbfe" opacity="0.55" stroke="#2563eb" stroke-width="1.1"></path><path d="M 530 242
              C 520 282, 532 318, 556 348
              C 576 374, 616 374, 618 338
              C 620 290, 590 252, 530 242 Z" fill="#fee2e2" opacity="0.6" stroke="#be123c" stroke-width="1.1"></path><path d="M 544 364
              C 534 402, 548 452, 586 464
              C 628 478, 646 436, 632 400
              C 618 366, 590 364, 544 364 Z" fill="#fecaca" opacity="0.6" stroke="#be123c" stroke-width="1.1"></path><g><ellipse cx="476" cy="428" rx="16" ry="10" fill="#93c5fd" opacity="0.65" stroke="#1f2937" stroke-width="1.2"></ellipse><ellipse cx="594" cy="436" rx="18" ry="11" fill="#fda4af" opacity="0.55" stroke="#1f2937" stroke-width="1.2"></ellipse><path d="M 468 418 L 482 366" stroke="#1f2937" stroke-width="1.3" opacity="0.65"></path><path d="M 484 420 L 502 370" stroke="#1f2937" stroke-width="1.3" opacity="0.65"></path><path d="M 584 426 L 558 356" stroke="#1f2937" stroke-width="1.3" opacity="0.65"></path><path d="M 604 428 L 574 356" stroke="#1f2937" stroke-width="1.3" opacity="0.65"></path></g><g><path d="M 614 164
     C 652 154, 678 182, 670 214
     C 662 246, 628 266, 600 252
     C 576 240, 578 174, 614 164 Z" fill="#fecaca" stroke="#1f2937" stroke-width="2.6"></path><path d="M 628 160 C 670 152, 696 186, 686 226
                     C 676 264, 636 282, 600 260" fill="none" stroke="#fff7ed" stroke-width="3.2" opacity="0.75" stroke-linecap="round"></path><path d="M 450 176
     C 410 168, 378 196, 386 228
     C 394 260, 426 272, 456 256
     C 482 242, 486 188, 450 176 Z" fill="#bfdbfe" stroke="#1f2937" stroke-width="2.6"></path><path d="M 436 172 C 392 164, 356 198, 366 238
                  C 376 278, 416 288, 456 264" fill="none" stroke="#eff6ff" stroke-width="3.2" opacity="0.75" stroke-linecap="round"></path><path d="M 348 174 C 352 220, 360 272, 380 306
                   C 398 334, 416 342, 428 338" fill="none" stroke="#60a5fa" stroke-width="16" stroke-linecap="round" opacity="0.9"></path><path d="M 348 174 C 352 220, 360 272, 380 306
                   C 398 334, 416 342, 428 338" fill="none" stroke="#1f2937" stroke-width="2.2" stroke-linecap="round" opacity="0.65"></path><path d="M 388 488 C 390 450, 394 418, 408 392
                   C 424 360, 430 346, 428 338" fill="none" stroke="#60a5fa" stroke-width="16" stroke-linecap="round" opacity="0.9"></path><path d="M 388 488 C 390 450, 394 418, 408 392
                   C 424 360, 430 346, 428 338" fill="none" stroke="#1f2937" stroke-width="2.2" stroke-linecap="round" opacity="0.65"></path><path d="M 740 220 C 710 230, 686 244, 656 256" fill="none" stroke="#fb7185" stroke-width="12" stroke-linecap="round" opacity="0.9"></path><path d="M 740 220 C 710 230, 686 244, 656 256" fill="none" stroke="#1f2937" stroke-width="2" stroke-linecap="round" opacity="0.55"></path><path d="M 744 260 C 714 264, 690 272, 660 278" fill="none" stroke="#fb7185" stroke-width="12" stroke-linecap="round" opacity="0.9"></path><path d="M 744 260 C 714 264, 690 272, 660 278" fill="none" stroke="#1f2937" stroke-width="2" stroke-linecap="round" opacity="0.55"></path></g></g><g data-teach-order="4" data-teach-kind="label" data-teach-weight="8" data-teach-sentence="1"><line x1="448" y1="294" x2="252" y2="210" stroke="#1f2937" stroke-width="2"></line><text x="86" y="214" font-family="Chalkboard SE, Marker Felt, Bradley Hand, Comic Sans MS, Trebuchet MS, sans-serif" font-size="22" fill="#1f2937" data-teach-order="4" data-teach-kind="label" data-teach-weight="8" data-teach-sentence="1">Right atrium</text><line x1="464" y1="432" x2="252" y2="260" stroke="#1f2937" stroke-width="2"></line><text x="86" y="264" font-family="Chalkboard SE, Marker Felt, Bradley Hand, Comic Sans MS, Trebuchet MS, sans-serif" font-size="22" fill="#1f2937" data-teach-order="5" data-teach-kind="label" data-teach-weight="8" data-teach-sentence="1">Right ventricle</text><line x1="598" y1="294" x2="742" y2="210" stroke="#1f2937" stroke-width="2"></line><text x="770" y="214" font-family="Chalkboard SE, Marker Felt, Bradley Hand, Comic Sans MS, Trebuchet MS, sans-serif" font-size="22" fill="#1f2937" data-teach-order="6" data-teach-kind="label" data-teach-weight="8" data-teach-sentence="1">Left atrium</text><line x1="606" y1="438" x2="742" y2="260" stroke="#1f2937" stroke-width="2"></line><text x="770" y="264" font-family="Chalkboard SE, Marker Felt, Bradley Hand, Comic Sans MS, Trebuchet MS, sans-serif" font-size="22" fill="#1f2937" data-teach-order="7" data-teach-kind="label" data-teach-weight="8" data-teach-sentence="1">Left ventricle</text></g><text x="86" y="486" font-family="Chalkboard SE, Marker Felt, Bradley Hand, Comic Sans MS, Trebuchet MS, sans-serif" font-size="24" fill="#374151" data-teach-order="8" data-teach-kind="write" data-teach-weight="7" data-teach-sentence="2">One-way flow: valves</text><g data-teach-order="9" data-teach-kind="diagram" data-teach-weight="8" data-teach-sentence="2"><g><g><path d="M 476 326
            C 493.275 316, 505.275 332, 491.275 344
            C 478 348, 470 336, 476 326 Z" fill="#d97706" opacity="0.9" stroke="#1f2937" stroke-width="1.6" stroke-linejoin="round"></path><path d="M 480 328 C 495.275 328, 497.275 336, 482 340" fill="none" stroke="#fff7ed" stroke-width="1.6" opacity="0.8" stroke-linecap="round"></path></g><g><path d="M 488 324
            C 470.725 314, 458.725 330, 472.725 342
            C 486 346, 494 334, 488 324 Z" fill="#d97706" opacity="0.9" stroke="#1f2937" stroke-width="1.6" stroke-linejoin="round"></path><path d="M 484 326 C 468.725 326, 466.725 334, 482 338" fill="none" stroke="#fff7ed" stroke-width="1.6" opacity="0.8" stroke-linecap="round"></path></g><g><path d="M 548 318
            C 565.275 308, 577.275 324, 563.275 336
            C 550 340, 542 328, 548 318 Z" fill="#d97706" opacity="0.9" stroke="#1f2937" stroke-width="1.6" stroke-linejoin="round"></path><path d="M 552 320 C 567.275 320, 569.275 328, 554 332" fill="none" stroke="#fff7ed" stroke-width="1.6" opacity="0.8" stroke-linecap="round"></path></g><g><path d="M 560 316
            C 542.725 306, 530.725 322, 544.725 334
            C 558 338, 566 326, 560 316 Z" fill="#d97706" opacity="0.9" stroke="#1f2937" stroke-width="1.6" stroke-linejoin="round"></path><path d="M 556 318 C 540.725 318, 538.725 326, 554 330" fill="none" stroke="#fff7ed" stroke-width="1.6" opacity="0.8" stroke-linecap="round"></path></g><g><path d="M 490 246
            C 507.275 236, 519.275 252, 505.275 264
            C 492 268, 484 256, 490 246 Z" fill="#fdba74" opacity="0.9" stroke="#1f2937" stroke-width="1.6" stroke-linejoin="round"></path><path d="M 494 248 C 509.275 248, 511.275 256, 496 260" fill="none" stroke="#fff7ed" stroke-width="1.6" opacity="0.8" stroke-linecap="round"></path></g><g><path d="M 498 244
            C 480.725 234, 468.725 250, 482.725 262
            C 496 266, 504 254, 498 244 Z" fill="#fdba74" opacity="0.9" stroke="#1f2937" stroke-width="1.6" stroke-linejoin="round"></path><path d="M 494 246 C 478.725 246, 476.725 254, 492 258" fill="none" stroke="#fff7ed" stroke-width="1.6" opacity="0.8" stroke-linecap="round"></path></g><g><path d="M 580 248
            C 597.275 238, 609.275 254, 595.275 266
            C 582 270, 574 258, 580 248 Z" fill="#fdba74" opacity="0.9" stroke="#1f2937" stroke-width="1.6" stroke-linejoin="round"></path><path d="M 584 250 C 599.275 250, 601.275 258, 586 262" fill="none" stroke="#fff7ed" stroke-width="1.6" opacity="0.8" stroke-linecap="round"></path></g><g><path d="M 588 246
            C 570.725 236, 558.725 252, 572.725 264
            C 586 268, 594 256, 588 246 Z" fill="#fdba74" opacity="0.9" stroke="#1f2937" stroke-width="1.6" stroke-linejoin="round"></path><path d="M 584 248 C 568.725 248, 566.725 256, 582 260" fill="none" stroke="#fff7ed" stroke-width="1.6" opacity="0.8" stroke-linecap="round"></path></g></g><g><line x1="482" y1="334" x2="292" y2="324" stroke="#1f2937" stroke-width="2"></line><text x="86" y="328" font-family="Chalkboard SE, Marker Felt, Bradley Hand, Comic Sans MS, Trebuchet MS, sans-serif" font-size="20" fill="#d97706" data-teach-order="9" data-teach-kind="label" data-teach-weight="7" data-teach-sentence="2">Tricuspid valve</text><line x1="554" y1="326" x2="742" y2="324" stroke="#1f2937" stroke-width="2"></line><text x="770" y="328" font-family="Chalkboard SE, Marker Felt, Bradley Hand, Comic Sans MS, Trebuchet MS, sans-serif" font-size="20" fill="#d97706" data-teach-order="10" data-teach-kind="label" data-teach-weight="7" data-teach-sentence="2">Mitral valve</text><line x1="494" y1="248" x2="292" y2="360" stroke="#1f2937" stroke-width="2"></line><text x="86" y="364" font-family="Chalkboard SE, Marker Felt, Bradley Hand, Comic Sans MS, Trebuchet MS, sans-serif" font-size="20" fill="#d97706" data-teach-order="11" data-teach-kind="label" data-teach-weight="7" data-teach-sentence="2">Pulmonary valve</text><line x1="584" y1="250" x2="742" y2="360" stroke="#1f2937" stroke-width="2"></line><text x="770" y="364" font-family="Chalkboard SE, Marker Felt, Bradley Hand, Comic Sans MS, Trebuchet MS, sans-serif" font-size="20" fill="#d97706" data-teach-order="12" data-teach-kind="label" data-teach-weight="7" data-teach-sentence="2">Aortic valve</text></g></g><text x="664" y="154" font-family="Chalkboard SE, Marker Felt, Bradley Hand, Comic Sans MS, Trebuchet MS, sans-serif" font-size="24" fill="#be185d" data-teach-order="13" data-teach-kind="write" data-teach-weight="7" data-teach-sentence="3">Oxygenated: lungs →</text><g data-teach-order="14" data-teach-kind="label" data-teach-weight="7" data-teach-sentence="3"><line x1="670" y1="192" x2="742" y2="180" stroke="#1f2937" stroke-width="2"></line><text x="770" y="184" font-family="Chalkboard SE, Marker Felt, Bradley Hand, Comic Sans MS, Trebuchet MS, sans-serif" font-size="20" fill="#1f2937" data-teach-order="14" data-teach-kind="label" data-teach-weight="7" data-teach-sentence="3">Aorta</text><line x1="670" y1="242" x2="742" y2="400" stroke="#1f2937" stroke-width="2"></line><text x="770" y="404" font-family="Chalkboard SE, Marker Felt, Bradley Hand, Comic Sans MS, Trebuchet MS, sans-serif" font-size="20" fill="#1f2937" data-teach-order="15" data-teach-kind="label" data-teach-weight="7" data-teach-sentence="3">Pulmonary veins</text></g><g data-teach-order="16" data-teach-kind="arrow" data-teach-weight="9" data-teach-sentence="3"><polyline points="740 214 668 238 632 270 624 324 650 372 690 318 708 220" fill="none" stroke="#be185d" stroke-width="4.5" stroke-linecap="round" stroke-linejoin="round" opacity="0.82"></polyline><polygon points="708,220 700.2922017993245,228.75156254035033 712.0947677941089,230.9193807842903" fill="#be185d" opacity="0.9"></polygon><g><circle cx="708" cy="220.00000000000003" r="7.5" fill="#be185d" opacity="0.95" stroke="#1f2937" stroke-width="1.4"></circle><ellipse cx="706" cy="218.00000000000003" rx="2.6" ry="1.6" fill="#fff7ed" opacity="0.65"></ellipse></g></g><text x="86" y="436" font-family="Chalkboard SE, Marker Felt, Bradley Hand, Comic Sans MS, Trebuchet MS, sans-serif" font-size="24" fill="#3b82f6" data-teach-order="17" data-teach-kind="write" data-teach-weight="7" data-teach-sentence="4">Deoxygenated: body →</text><g data-teach-order="18" data-teach-kind="label" data-teach-weight="7" data-teach-sentence="4"><line x1="366" y1="204" x2="252" y2="176" stroke="#1f2937" stroke-width="2"></line><text x="86" y="180" font-family="Chalkboard SE, Marker Felt, Bradley Hand, Comic Sans MS, Trebuchet MS, sans-serif" font-size="20" fill="#1f2937" data-teach-order="18" data-teach-kind="label" data-teach-weight="7" data-teach-sentence="4">Superior vena cava</text><line x1="394" y1="468" x2="252" y2="392" stroke="#1f2937" stroke-width="2"></line><text x="86" y="396" font-family="Chalkboard SE, Marker Felt, Bradley Hand, Comic Sans MS, Trebuchet MS, sans-serif" font-size="20" fill="#1f2937" data-teach-order="19" data-teach-kind="label" data-teach-weight="7" data-teach-sentence="4">Inferior vena cava</text><line x1="404" y1="200" x2="252" y2="146" stroke="#1f2937" stroke-width="2"></line><text x="86" y="150" font-family="Chalkboard SE, Marker Felt, Bradley Hand, Comic Sans MS, Trebuchet MS, sans-serif" font-size="20" fill="#1f2937" data-teach-order="20" data-teach-kind="label" data-teach-weight="7" data-teach-sentence="4">Pulmonary artery</text></g><g data-teach-order="21" data-teach-kind="arrow" data-teach-weight="9" data-teach-sentence="4"><polyline points="364 170 404 230 420 280 430 344 468 366 492 304 430 214" fill="none" stroke="#3b82f6" stroke-width="4.5" stroke-linecap="round" stroke-linejoin="round" opacity="0.82"></polyline><polygon points="430,214 430.73200675645353,225.63890742761134 440.6140979685764,218.8312445925934" fill="#3b82f6" opacity="0.9"></polygon><g><circle cx="430" cy="214" r="7.5" fill="#3b82f6" opacity="0.95" stroke="#1f2937" stroke-width="1.4"></circle><ellipse cx="428" cy="212" rx="2.6" ry="1.6" fill="#eff6ff" opacity="0.7"></ellipse></g></g><text x="360" y="524" font-family="Chalkboard SE, Marker Felt, Bradley Hand, Comic Sans MS, Trebuchet MS, sans-serif" font-size="22" fill="#14b8a6" data-teach-order="22" data-teach-kind="write" data-teach-weight="7" data-teach-sentence="5">Septum separates</text><g data-teach-order="23" data-teach-kind="annotate" data-teach-weight="8" data-teach-sentence="5"><path d="M 520 516 C 540 498, 548 460, 530 382" fill="none" stroke="#14b8a6" stroke-width="3.2" stroke-linecap="round"></path><path d="M 514 320 C 526 330, 538 330, 550 320" fill="none" stroke="#65a30d" stroke-width="3" stroke-linecap="round" opacity="0.85"></path><line x1="502" y1="340" x2="476" y2="340" stroke="#3b82f6" stroke-width="3" stroke-linecap="round" opacity="0.85"></line><polygon points="476,340 486,334 486,346" fill="#3b82f6" opacity="0.85"></polygon><line x1="538" y1="340" x2="564" y2="340" stroke="#be185d" stroke-width="3" stroke-linecap="round" opacity="0.85"></line><polygon points="564,340 554,334 554,346" fill="#be185d" opacity="0.85"></polygon></g></svg>